<?xml version="1.0" encoding="UTF-8" standalone="no"?>
<!-- Created with Inkscape (http://www.inkscape.org/) -->

<svg
   xmlns:dc="http://purl.org/dc/elements/1.1/"
   xmlns:cc="http://creativecommons.org/ns#"
   xmlns:rdf="http://www.w3.org/1999/02/22-rdf-syntax-ns#"
   xmlns:svg="http://www.w3.org/2000/svg"
   xmlns="http://www.w3.org/2000/svg"
   xmlns:sodipodi="http://sodipodi.sourceforge.net/DTD/sodipodi-0.dtd"
   xmlns:inkscape="http://www.inkscape.org/namespaces/inkscape"
   width="50.800003mm"
   height="50.800003mm"
   viewBox="0 0 180.00001 180.00001"
   id="svg2"
   version="1.1"
   inkscape:version="0.91 r13725"
   sodipodi:docname="backpattern.svg">
  <defs
     id="defs4" />
  <sodipodi:namedview
     id="base"
     pagecolor="#ffffff"
     bordercolor="#666666"
     borderopacity="1.0"
     inkscape:pageopacity="0.0"
     inkscape:pageshadow="2"
     inkscape:zoom="1.979899"
     inkscape:cx="56.333791"
     inkscape:cy="92.264106"
     inkscape:document-units="px"
     inkscape:current-layer="layer1"
     showgrid="false"
     inkscape:window-width="1024"
     inkscape:window-height="708"
     inkscape:window-x="-4"
     inkscape:window-y="-4"
     inkscape:window-maximized="1"
     fit-margin-top="0"
     fit-margin-left="0"
     fit-margin-right="0"
     fit-margin-bottom="0" />
  <metadata
     id="metadata7">
    <rdf:RDF>
      <cc:Work
         rdf:about="">
        <dc:format>image/svg+xml</dc:format>
        <dc:type
           rdf:resource="http://purl.org/dc/dcmitype/StillImage" />
        <dc:title></dc:title>
      </cc:Work>
    </rdf:RDF>
  </metadata>
  <g
     inkscape:label="Layer 1"
     inkscape:groupmode="layer"
     id="layer1"
     transform="translate(71.428574,-112.36221)">
    <rect
       style="opacity:1;fill:#f8f8e6;fill-opacity:1;fill-rule:nonzero;stroke:none;stroke-width:1;stroke-linecap:butt;stroke-linejoin:miter;stroke-miterlimit:4;stroke-dasharray:none;stroke-dashoffset:0;stroke-opacity:1"
       id="rect4140"
       width="180.00002"
       height="180.00002"
       x="-71.428574"
       y="112.36221" />
    <g
       transform="matrix(0.71381021,0,0,0.71381021,39.925114,131.05949)"
       id="g4191">
      <path
         style="opacity:1;fill:#ffffff;fill-opacity:1;fill-rule:nonzero;stroke:none;stroke-width:1;stroke-linecap:butt;stroke-linejoin:miter;stroke-miterlimit:4;stroke-dasharray:none;stroke-dashoffset:0;stroke-opacity:1"
         d="m -5.6404932,148.84443 c 6e-7,4.41848 -1.44378,10.55962 -2.3206067,13.45519 -0.8768268,2.89558 -0.6232941,8.17964 -1.9612866,8.17964 -1.3379925,0 -1.1971415,-4.60799 -2.0739675,-7.50355 -0.876827,-2.89557 -2.54597,-10.2762 -2.545969,-14.69469 0,-8.83697 1.943952,-9.80328 4.6199365,-9.80328 2.6759852,0 4.2818927,1.52972 4.2818933,10.36669 z"
         id="path4193"
         inkscape:connector-curvature="0"
         sodipodi:nodetypes="sssssss" />
      <path
         sodipodi:nodetypes="sssssss"
         inkscape:connector-curvature="0"
         id="path4195"
         d="m 4.7895158,153.5897 c -2.1520651,3.85898 -6.4041198,8.51925 -8.5802265,10.62108 -2.1761104,2.10183 -4.5283361,6.84026 -5.6968979,6.18857 -1.1685614,-0.65168 1.198819,-4.60755 1.8433398,-7.56351 0.6445202,-2.95597 2.7815506,-10.21495 4.9336174,-14.07392 4.3041331,-7.71793 6.472568,-7.61506 8.8096897,-6.3117 2.3371224,1.30337 2.9946093,3.42155 -1.3095225,11.13948 z"
         style="opacity:1;fill:#ffffff;fill-opacity:1;fill-rule:nonzero;stroke:none;stroke-width:1;stroke-linecap:butt;stroke-linejoin:miter;stroke-miterlimit:4;stroke-dasharray:none;stroke-dashoffset:0;stroke-opacity:1" />
      <path
         style="opacity:1;fill:#ffffff;fill-opacity:1;fill-rule:nonzero;stroke:none;stroke-width:1;stroke-linecap:butt;stroke-linejoin:miter;stroke-miterlimit:4;stroke-dasharray:none;stroke-dashoffset:0;stroke-opacity:1"
         d="m 11.861001,165.14588 c -3.9483897,1.98323 -10.0841998,3.4495 -13.0652668,3.96563 -2.9810658,0.51614 -7.5891503,3.11445 -8.189702,1.9188 -0.6005558,-1.19564 3.5803933,-3.13806 5.7743318,-5.22127 2.1939392,-2.08321 8.0401331,-6.88756 11.9885291,-8.87079 7.8967839,-3.96647 9.6328259,-2.66307 10.8339409,-0.27179 1.201111,2.39129 0.554955,4.51295 -7.341833,8.47942 z"
         id="path4197"
         inkscape:connector-curvature="0"
         sodipodi:nodetypes="sssssss" />
      <path
         sodipodi:nodetypes="sssssss"
         inkscape:connector-curvature="0"
         id="path4199"
         d="m -25.787325,155.67158 c 2.587229,3.58179 7.353536,7.71464 9.759814,9.54848 2.406283,1.83384 5.294824,6.26576 6.3794515,5.48231 1.0846297,-0.78346 -1.7277385,-4.4364 -2.7124385,-7.29708 -0.984699,-2.86069 -3.953329,-9.82108 -6.540558,-13.40287 -5.174458,-7.16359 -7.316117,-6.80864 -9.485375,-5.24173 -2.169258,1.56691 -2.57535,3.74729 2.599106,10.91089 z"
         style="opacity:1;fill:#ffffff;fill-opacity:1;fill-rule:nonzero;stroke:none;stroke-width:1;stroke-linecap:butt;stroke-linejoin:miter;stroke-miterlimit:4;stroke-dasharray:none;stroke-dashoffset:0;stroke-opacity:1" />
      <path
         style="opacity:1;fill:#ffffff;fill-opacity:1;fill-rule:nonzero;stroke:none;stroke-width:1;stroke-linecap:butt;stroke-linejoin:miter;stroke-miterlimit:4;stroke-dasharray:none;stroke-dashoffset:0;stroke-opacity:1"
         d="m -31.463716,165.62554 c 4.004153,1.86809 10.17984,3.15612 13.174597,3.58573 2.994764,0.42959 7.676132,2.89344 8.24182,1.6809 0.5656951,-1.21252 -3.66974,-3.03309 -5.923066,-5.05191 -2.253331,-2.01883 -8.236162,-6.65192 -12.240318,-8.52001 -8.008302,-3.73619 -9.705884,-2.38307 -10.837266,0.042 -1.131377,2.42505 -0.424073,4.52712 7.584233,8.26331 z"
         id="path4201"
         inkscape:connector-curvature="0"
         sodipodi:nodetypes="sssssss" />
      <path
         sodipodi:nodetypes="sssssss"
         inkscape:connector-curvature="0"
         id="path4203"
         d="m -30.429464,179.1341 c 4.361996,-0.70427 10.19449,-3.10846 12.913278,-4.43562 2.718793,-1.32715 7.9757115,-1.91911 7.7624376,-3.23999 -0.2132705,-1.32089 -4.7398856,-0.44735 -7.7381936,-0.85144 -2.998313,-0.40407 -10.550632,-0.87544 -14.91263,-0.17117 -8.72399,1.40857 -9.368092,3.48168 -8.941558,6.12346 0.426542,2.64177 2.192669,3.98332 10.916666,2.57476 z"
         style="opacity:1;fill:#ffffff;fill-opacity:1;fill-rule:nonzero;stroke:none;stroke-width:1;stroke-linecap:butt;stroke-linejoin:miter;stroke-miterlimit:4;stroke-dasharray:none;stroke-dashoffset:0;stroke-opacity:1" />
      <path
         style="opacity:1;fill:#ffffff;fill-opacity:1;fill-rule:nonzero;stroke:none;stroke-width:1;stroke-linecap:butt;stroke-linejoin:miter;stroke-miterlimit:4;stroke-dasharray:none;stroke-dashoffset:0;stroke-opacity:1"
         d="m -8.6490258,194.11027 c -1.0046555,-4.30275 -0.9950337,-10.61132 -0.7995583,-13.63041 0.1954805,-3.0191 -1.2528799,-8.10711 0.050065,-8.41134 1.3029537,-0.30422 2.2135341,4.21509 3.725773,6.83544 1.5122414,2.62036 4.81583957,9.42816 5.82048946,13.7309 2.00931114,8.60551 0.33599333,9.98852 -2.26990036,10.59697 -2.605894,0.60845 -4.5175521,-0.51605 -6.5268693,-9.12156 z"
         id="path4205"
         inkscape:connector-curvature="0"
         sodipodi:nodetypes="sssssss" />
      <path
         sodipodi:nodetypes="sssssss"
         inkscape:connector-curvature="0"
         id="path4207"
         d="m -19.884801,191.86081 c 1.21826,-4.24721 4.299306,-9.75224 5.940515,-12.29381 1.641226,-2.54156 2.854415,-7.69073 4.1405485,-7.3218 1.2861302,0.3689 -0.119776,4.75944 -0.075301,7.78452 0.04448,3.02509 -0.3860605,10.57986 -1.6043245,14.82708 -2.43653,8.49443 -4.57156,8.8873 -7.143804,8.14949 -2.572256,-0.73782 -3.694149,-2.65102 -1.25762,-11.14546 z"
         style="opacity:1;fill:#ffffff;fill-opacity:1;fill-rule:nonzero;stroke:none;stroke-width:1;stroke-linecap:butt;stroke-linejoin:miter;stroke-miterlimit:4;stroke-dasharray:none;stroke-dashoffset:0;stroke-opacity:1" />
      <path
         style="opacity:1;fill:#ffffff;fill-opacity:1;fill-rule:nonzero;stroke:none;stroke-width:1;stroke-linecap:butt;stroke-linejoin:miter;stroke-miterlimit:4;stroke-dasharray:none;stroke-dashoffset:0;stroke-opacity:1"
         d="m -29.398657,182.21521 c 3.394032,-2.82905 9.035736,-5.65204 11.821362,-6.83248 2.785629,-1.18044 6.682226,-4.75846 7.538903,-3.73068 0.8566891,1.02778 -2.77309,3.86995 -4.43589,6.39746 -1.662812,2.52749 -6.263485,8.53528 -9.657518,11.36434 -6.788072,5.6581 -8.774997,4.78357 -10.48837,2.72804 -1.713367,-2.05556 -1.566557,-4.26856 5.221513,-9.92668 z"
         id="path4209"
         inkscape:connector-curvature="0"
         sodipodi:nodetypes="sssssss" />
      <path
         style="opacity:1;fill:#ffffff;fill-opacity:1;fill-rule:nonzero;stroke:none;stroke-width:1;stroke-linecap:butt;stroke-linejoin:miter;stroke-miterlimit:4;stroke-dasharray:none;stroke-dashoffset:0;stroke-opacity:1"
         d="m 11.259681,179.82845 c -4.313242,-0.95861 -9.9948782,-3.70036 -12.6312404,-5.18452 -2.6363576,-1.48417 -7.8495895,-2.38306 -7.559292,-3.68919 0.2902787,-1.30612 4.7579534,-0.16889 7.7747801,-0.39663 3.0168338,-0.22773 10.5838071,-0.25585 14.8970503,0.70278 8.626485,1.91723 9.148028,4.02453 8.567469,6.63676 -0.580571,2.61224 -2.422263,3.84803 -11.048755,1.93078 z"
         id="path4211"
         inkscape:connector-curvature="0"
         sodipodi:nodetypes="sssssss" />
      <path
         sodipodi:nodetypes="sssssss"
         inkscape:connector-curvature="0"
         id="path4213"
         d="m 2.2084074,189.9094 c -3.02955698,-3.21633 -6.1892766,-8.67658 -7.536366,-11.38555 -1.3470964,-2.70896 -5.1546934,-6.38155 -4.1807291,-7.29894 0.9739698,-0.9174 4.0309076,2.53345 6.6545402,4.04002 2.62362494,1.50657 8.8991974,5.73468 11.9287536,8.95101 6.0591009,6.43269 5.3065969,8.46896 3.3586809,10.30375 -1.947935,1.8348 -4.1657672,1.82238 -10.2248796,-4.61029 z"
         style="opacity:1;fill:#ffffff;fill-opacity:1;fill-rule:nonzero;stroke:none;stroke-width:1;stroke-linecap:butt;stroke-linejoin:miter;stroke-miterlimit:4;stroke-dasharray:none;stroke-dashoffset:0;stroke-opacity:1" />
      <circle
         style="opacity:1;fill:#ffffff;fill-opacity:1;fill-rule:nonzero;stroke:none;stroke-width:1;stroke-linecap:butt;stroke-linejoin:miter;stroke-miterlimit:4;stroke-dasharray:none;stroke-dashoffset:0;stroke-opacity:1"
         id="circle4215"
         cx="-9.9223862"
         cy="171.94412"
         r="8.0003796" />
    </g>
    <path
       sodipodi:type="star"
       style="opacity:1;fill:#ffd794;fill-opacity:1;fill-rule:nonzero;stroke:none;stroke-width:1;stroke-linecap:butt;stroke-linejoin:miter;stroke-miterlimit:4;stroke-dasharray:none;stroke-dashoffset:0;stroke-opacity:1"
       id="path4142"
       sodipodi:sides="11"
       sodipodi:cx="66.431633"
       sodipodi:cy="259.82343"
       sodipodi:r1="19.064535"
       sodipodi:r2="3.5847445"
       sodipodi:arg1="1.3310532"
       sodipodi:arg2="1.5876529"
       inkscape:flatsided="false"
       inkscape:rounded="0.55"
       inkscape:randomized="0"
       d="m 70.958566,278.3427 c -8.284564,2.28166 3.996629,-14.54113 -4.587357,-14.93504 -8.623161,-0.39571 2.096864,17.01381 -6.143551,14.44261 -8.202978,-2.55952 11.223702,-10.07203 4.21536,-15.04426 -7.040328,-4.99493 -7.434368,15.44658 -12.97655,8.82844 -5.517004,-6.58807 14.887329,-2.40514 11.679729,-10.37704 -3.222239,-8.00829 -14.605239,8.97516 -15.689585,0.4113 -1.07942,-8.52495 13.824334,6.02537 15.435867,-2.41518 1.618888,-8.47908 -17.13905,-0.3458 -13.421287,-8.13642 3.700872,-7.75523 8.37221,12.54286 14.291226,6.31348 5.946029,-6.25782 -14.231334,-9.55698 -6.891827,-14.10089 7.306164,-4.52327 0.26197,15.07808 8.609222,13.03765 8.385348,-2.04974 -6.80527,-15.73387 1.825741,-15.58842 8.591799,0.1448 -7.931445,12.82612 0.193851,15.62247 8.162378,2.80911 2.781419,-16.91539 9.963648,-12.12675 7.1496,4.76689 -13.606682,6.50196 -8.283067,13.24727 5.347911,6.77608 11.485028,-12.72639 14.938168,-4.81492 3.437453,7.87553 -14.961893,-1.88653 -14.130169,6.66614 0.83552,8.59171 16.542221,-4.49683 15.169925,4.02563 -1.366061,8.48374 -11.566809,-9.67607 -15.491043,-2.03144 -3.942143,7.67952 16.347376,5.16042 10.585338,11.58805 -5.735861,6.39843 -4.499345,-14.39351 -11.93362,-10.08404 -7.468203,4.32914 10.962355,13.17928 2.639981,15.47136 z"
       inkscape:transform-center-x="0.092557003"
       inkscape:transform-center-y="-0.19694237" />
    <path
       sodipodi:type="star"
       style="opacity:1;fill:#ffd794;fill-opacity:1;fill-rule:nonzero;stroke:none;stroke-width:1;stroke-linecap:butt;stroke-linejoin:miter;stroke-miterlimit:4;stroke-dasharray:none;stroke-dashoffset:0;stroke-opacity:1"
       id="path4144"
       sodipodi:sides="11"
       sodipodi:cx="25.397392"
       sodipodi:cy="142.83139"
       sodipodi:r1="10.301576"
       sodipodi:r2="5.0360808"
       sodipodi:arg1="0.58800261"
       sodipodi:arg2="0.86737393"
       inkscape:flatsided="false"
       inkscape:rounded="0.55"
       inkscape:randomized="0"
       d="m 33.968821,148.54568 c -1.702926,2.58918 -2.938088,-3.86339 -5.313933,-1.87361 -2.38943,2.00116 3.712483,4.33587 0.863873,5.60055 -2.832414,1.25749 -0.382975,-4.83854 -3.457418,-4.44911 -3.092023,0.39166 0.778994,5.65468 -2.301148,5.17853 -3.06263,-0.47345 2.293731,-4.27749 -0.503197,-5.61205 -2.81292,-1.34219 -2.401819,5.17818 -4.73557,3.11236 -2.320482,-2.05408 4.242192,-2.35837 2.610786,-4.99321 -1.640735,-2.6499 -4.820073,3.05764 -5.666483,0.058 -0.841598,-2.98254 4.843788,0.30952 4.895862,-2.78905 0.05237,-3.11629 -5.707987,-0.0337 -4.798327,-3.01471 0.904488,-2.96407 3.907515,2.87914 5.626537,0.30061 1.728851,-2.59328 -4.783655,-3.11431 -2.406736,-5.13031 2.363405,-2.00454 1.730634,4.53465 4.570826,3.29482 2.856432,-1.24691 -2.340547,-5.20616 0.748976,-5.61707 3.071958,-0.40857 -0.995711,4.75044 2.06391,5.24296 3.077117,0.49533 0.845669,-5.6451 3.666895,-4.32045 2.805185,1.31711 -3.405926,3.458 -1.098283,5.52649 2.320838,2.08031 3.76339,-4.29176 5.420599,-1.65213 1.647787,2.62463 -4.734782,1.06768 -3.911779,4.0554 0.82771,3.00482 5.486262,-1.57581 5.453303,1.54075 -0.03277,3.09883 -4.56038,-1.66163 -5.483313,1.29675 -0.92821,2.9753 5.467285,1.64044 3.75462,4.24444 z"
       inkscape:transform-center-x="-0.14345298"
       inkscape:transform-center-y="-0.062087933" />
    <g
       id="g4217"
       transform="matrix(0.71381021,0,0,0.71381021,60.996543,56.05949)">
      <path
         sodipodi:nodetypes="sssssss"
         inkscape:connector-curvature="0"
         id="path4219"
         d="m -5.6404932,148.84443 c 6e-7,4.41848 -1.44378,10.55962 -2.3206067,13.45519 -0.8768268,2.89558 -0.6232941,8.17964 -1.9612866,8.17964 -1.3379925,0 -1.1971415,-4.60799 -2.0739675,-7.50355 -0.876827,-2.89557 -2.54597,-10.2762 -2.545969,-14.69469 0,-8.83697 1.943952,-9.80328 4.6199365,-9.80328 2.6759852,0 4.2818927,1.52972 4.2818933,10.36669 z"
         style="opacity:1;fill:#ffffff;fill-opacity:1;fill-rule:nonzero;stroke:none;stroke-width:1;stroke-linecap:butt;stroke-linejoin:miter;stroke-miterlimit:4;stroke-dasharray:none;stroke-dashoffset:0;stroke-opacity:1" />
      <path
         style="opacity:1;fill:#ffffff;fill-opacity:1;fill-rule:nonzero;stroke:none;stroke-width:1;stroke-linecap:butt;stroke-linejoin:miter;stroke-miterlimit:4;stroke-dasharray:none;stroke-dashoffset:0;stroke-opacity:1"
         d="m 4.7895158,153.5897 c -2.1520651,3.85898 -6.4041198,8.51925 -8.5802265,10.62108 -2.1761104,2.10183 -4.5283361,6.84026 -5.6968979,6.18857 -1.1685614,-0.65168 1.198819,-4.60755 1.8433398,-7.56351 0.6445202,-2.95597 2.7815506,-10.21495 4.9336174,-14.07392 4.3041331,-7.71793 6.472568,-7.61506 8.8096897,-6.3117 2.3371224,1.30337 2.9946093,3.42155 -1.3095225,11.13948 z"
         id="path4221"
         inkscape:connector-curvature="0"
         sodipodi:nodetypes="sssssss" />
      <path
         sodipodi:nodetypes="sssssss"
         inkscape:connector-curvature="0"
         id="path4223"
         d="m 11.861001,165.14588 c -3.9483897,1.98323 -10.0841998,3.4495 -13.0652668,3.96563 -2.9810658,0.51614 -7.5891503,3.11445 -8.189702,1.9188 -0.6005558,-1.19564 3.5803933,-3.13806 5.7743318,-5.22127 2.1939392,-2.08321 8.0401331,-6.88756 11.9885291,-8.87079 7.8967839,-3.96647 9.6328259,-2.66307 10.8339409,-0.27179 1.201111,2.39129 0.554955,4.51295 -7.341833,8.47942 z"
         style="opacity:1;fill:#ffffff;fill-opacity:1;fill-rule:nonzero;stroke:none;stroke-width:1;stroke-linecap:butt;stroke-linejoin:miter;stroke-miterlimit:4;stroke-dasharray:none;stroke-dashoffset:0;stroke-opacity:1" />
      <path
         style="opacity:1;fill:#ffffff;fill-opacity:1;fill-rule:nonzero;stroke:none;stroke-width:1;stroke-linecap:butt;stroke-linejoin:miter;stroke-miterlimit:4;stroke-dasharray:none;stroke-dashoffset:0;stroke-opacity:1"
         d="m -25.787325,155.67158 c 2.587229,3.58179 7.353536,7.71464 9.759814,9.54848 2.406283,1.83384 5.294824,6.26576 6.3794515,5.48231 1.0846297,-0.78346 -1.7277385,-4.4364 -2.7124385,-7.29708 -0.984699,-2.86069 -3.953329,-9.82108 -6.540558,-13.40287 -5.174458,-7.16359 -7.316117,-6.80864 -9.485375,-5.24173 -2.169258,1.56691 -2.57535,3.74729 2.599106,10.91089 z"
         id="path4225"
         inkscape:connector-curvature="0"
         sodipodi:nodetypes="sssssss" />
      <path
         sodipodi:nodetypes="sssssss"
         inkscape:connector-curvature="0"
         id="path4227"
         d="m -31.463716,165.62554 c 4.004153,1.86809 10.17984,3.15612 13.174597,3.58573 2.994764,0.42959 7.676132,2.89344 8.24182,1.6809 0.5656951,-1.21252 -3.66974,-3.03309 -5.923066,-5.05191 -2.253331,-2.01883 -8.236162,-6.65192 -12.240318,-8.52001 -8.008302,-3.73619 -9.705884,-2.38307 -10.837266,0.042 -1.131377,2.42505 -0.424073,4.52712 7.584233,8.26331 z"
         style="opacity:1;fill:#ffffff;fill-opacity:1;fill-rule:nonzero;stroke:none;stroke-width:1;stroke-linecap:butt;stroke-linejoin:miter;stroke-miterlimit:4;stroke-dasharray:none;stroke-dashoffset:0;stroke-opacity:1" />
      <path
         style="opacity:1;fill:#ffffff;fill-opacity:1;fill-rule:nonzero;stroke:none;stroke-width:1;stroke-linecap:butt;stroke-linejoin:miter;stroke-miterlimit:4;stroke-dasharray:none;stroke-dashoffset:0;stroke-opacity:1"
         d="m -30.429464,179.1341 c 4.361996,-0.70427 10.19449,-3.10846 12.913278,-4.43562 2.718793,-1.32715 7.9757115,-1.91911 7.7624376,-3.23999 -0.2132705,-1.32089 -4.7398856,-0.44735 -7.7381936,-0.85144 -2.998313,-0.40407 -10.550632,-0.87544 -14.91263,-0.17117 -8.72399,1.40857 -9.368092,3.48168 -8.941558,6.12346 0.426542,2.64177 2.192669,3.98332 10.916666,2.57476 z"
         id="path4229"
         inkscape:connector-curvature="0"
         sodipodi:nodetypes="sssssss" />
      <path
         sodipodi:nodetypes="sssssss"
         inkscape:connector-curvature="0"
         id="path4231"
         d="m -8.6490258,194.11027 c -1.0046555,-4.30275 -0.9950337,-10.61132 -0.7995583,-13.63041 0.1954805,-3.0191 -1.2528799,-8.10711 0.050065,-8.41134 1.3029537,-0.30422 2.2135341,4.21509 3.725773,6.83544 1.5122414,2.62036 4.81583957,9.42816 5.82048946,13.7309 2.00931114,8.60551 0.33599333,9.98852 -2.26990036,10.59697 -2.605894,0.60845 -4.5175521,-0.51605 -6.5268693,-9.12156 z"
         style="opacity:1;fill:#ffffff;fill-opacity:1;fill-rule:nonzero;stroke:none;stroke-width:1;stroke-linecap:butt;stroke-linejoin:miter;stroke-miterlimit:4;stroke-dasharray:none;stroke-dashoffset:0;stroke-opacity:1" />
      <path
         style="opacity:1;fill:#ffffff;fill-opacity:1;fill-rule:nonzero;stroke:none;stroke-width:1;stroke-linecap:butt;stroke-linejoin:miter;stroke-miterlimit:4;stroke-dasharray:none;stroke-dashoffset:0;stroke-opacity:1"
         d="m -19.884801,191.86081 c 1.21826,-4.24721 4.299306,-9.75224 5.940515,-12.29381 1.641226,-2.54156 2.854415,-7.69073 4.1405485,-7.3218 1.2861302,0.3689 -0.119776,4.75944 -0.075301,7.78452 0.04448,3.02509 -0.3860605,10.57986 -1.6043245,14.82708 -2.43653,8.49443 -4.57156,8.8873 -7.143804,8.14949 -2.572256,-0.73782 -3.694149,-2.65102 -1.25762,-11.14546 z"
         id="path4233"
         inkscape:connector-curvature="0"
         sodipodi:nodetypes="sssssss" />
      <path
         sodipodi:nodetypes="sssssss"
         inkscape:connector-curvature="0"
         id="path4235"
         d="m -29.398657,182.21521 c 3.394032,-2.82905 9.035736,-5.65204 11.821362,-6.83248 2.785629,-1.18044 6.682226,-4.75846 7.538903,-3.73068 0.8566891,1.02778 -2.77309,3.86995 -4.43589,6.39746 -1.662812,2.52749 -6.263485,8.53528 -9.657518,11.36434 -6.788072,5.6581 -8.774997,4.78357 -10.48837,2.72804 -1.713367,-2.05556 -1.566557,-4.26856 5.221513,-9.92668 z"
         style="opacity:1;fill:#ffffff;fill-opacity:1;fill-rule:nonzero;stroke:none;stroke-width:1;stroke-linecap:butt;stroke-linejoin:miter;stroke-miterlimit:4;stroke-dasharray:none;stroke-dashoffset:0;stroke-opacity:1" />
      <path
         sodipodi:nodetypes="sssssss"
         inkscape:connector-curvature="0"
         id="path4237"
         d="m 11.259681,179.82845 c -4.313242,-0.95861 -9.9948782,-3.70036 -12.6312404,-5.18452 -2.6363576,-1.48417 -7.8495895,-2.38306 -7.559292,-3.68919 0.2902787,-1.30612 4.7579534,-0.16889 7.7747801,-0.39663 3.0168338,-0.22773 10.5838071,-0.25585 14.8970503,0.70278 8.626485,1.91723 9.148028,4.02453 8.567469,6.63676 -0.580571,2.61224 -2.422263,3.84803 -11.048755,1.93078 z"
         style="opacity:1;fill:#ffffff;fill-opacity:1;fill-rule:nonzero;stroke:none;stroke-width:1;stroke-linecap:butt;stroke-linejoin:miter;stroke-miterlimit:4;stroke-dasharray:none;stroke-dashoffset:0;stroke-opacity:1" />
      <path
         style="opacity:1;fill:#ffffff;fill-opacity:1;fill-rule:nonzero;stroke:none;stroke-width:1;stroke-linecap:butt;stroke-linejoin:miter;stroke-miterlimit:4;stroke-dasharray:none;stroke-dashoffset:0;stroke-opacity:1"
         d="m 2.2084074,189.9094 c -3.02955698,-3.21633 -6.1892766,-8.67658 -7.536366,-11.38555 -1.3470964,-2.70896 -5.1546934,-6.38155 -4.1807291,-7.29894 0.9739698,-0.9174 4.0309076,2.53345 6.6545402,4.04002 2.62362494,1.50657 8.8991974,5.73468 11.9287536,8.95101 6.0591009,6.43269 5.3065969,8.46896 3.3586809,10.30375 -1.947935,1.8348 -4.1657672,1.82238 -10.2248796,-4.61029 z"
         id="path4239"
         inkscape:connector-curvature="0"
         sodipodi:nodetypes="sssssss" />
      <circle
         r="8.0003796"
         cy="171.94412"
         cx="-9.9223862"
         id="circle4241"
         style="opacity:1;fill:#ffffff;fill-opacity:1;fill-rule:nonzero;stroke:none;stroke-width:1;stroke-linecap:butt;stroke-linejoin:miter;stroke-miterlimit:4;stroke-dasharray:none;stroke-dashoffset:0;stroke-opacity:1" />
    </g>
    <path
       inkscape:transform-center-y="-0.062087933"
       inkscape:transform-center-x="-0.14345298"
       d="m 43.896395,190.30114 c -2.169662,3.16904 6.014191,-5.32262 2.380017,-6.56479 -4.531734,-1.54896 -2.769335,3.06199 -7.18182,4.92367 -3.538545,1.49295 7.937088,-1.22616 5.551393,-4.23592 -2.974908,-3.7531 -3.98515,1.0787 -8.703669,0.25927 -3.783964,-0.65713 7.340016,3.2596 6.960242,-0.56217 -0.473571,-4.76567 -3.93571,-1.24708 -7.462165,-4.48745 -2.828002,-2.59858 4.412541,6.71046 6.159262,3.29006 2.178123,-4.26517 -2.636708,-3.17692 -3.851475,-7.80943 -0.974169,-3.715 0.08411,8.0308 3.40276,6.09772 4.138278,-2.4105 -0.50057,-4.0981 0.982031,-8.65198 1.188955,-3.65193 -4.271018,6.80142 -0.434094,6.96941 4.784558,0.20947 1.794494,-3.71818 5.503748,-6.74758 2.974595,-2.4294 -7.270131,3.41262 -4.133126,5.62834 3.911775,2.76295 3.51982,-2.15775 8.278064,-2.70087 3.815822,-0.43556 -7.96103,-1.05965 -6.51992,2.50033 1.797032,4.4392 4.127628,0.0877 8.424154,2.20333 3.445552,1.69658 -6.124357,-5.19548 -6.836685,-1.42152 -0.888257,4.70605 3.424943,2.30538 5.895634,6.40801 1.981344,3.29006 -2.343245,-7.6818 -4.982851,-4.89206 -3.291531,3.47876 1.634862,3.79108 1.495292,8.57818 -0.111927,3.83897 2.181831,-7.72919 -1.546998,-6.80939 -4.649766,1.14698 -0.674275,4.07313 -3.379794,8.02484 z"
       inkscape:randomized="0"
       inkscape:rounded="0.55"
       inkscape:flatsided="false"
       sodipodi:arg2="0.88602168"
       sodipodi:arg1="1.6145233"
       sodipodi:r2="3.14047"
       sodipodi:r1="9.0058899"
       sodipodi:cy="181.30386"
       sodipodi:cx="44.29007"
       sodipodi:sides="11"
       id="path4146"
       style="opacity:1;fill:#ffd794;fill-opacity:1;fill-rule:nonzero;stroke:none;stroke-width:1;stroke-linecap:butt;stroke-linejoin:miter;stroke-miterlimit:4;stroke-dasharray:none;stroke-dashoffset:0;stroke-opacity:1"
       sodipodi:type="star" />
    <g
       id="g4175"
       transform="matrix(1.0220146,0,0,1.0220146,-13.730503,-8.8451199)">
      <path
         sodipodi:nodetypes="sssssss"
         inkscape:connector-curvature="0"
         id="path4148"
         d="m -5.6404932,148.84443 c 6e-7,4.41848 -1.44378,10.55962 -2.3206067,13.45519 -0.8768268,2.89558 -0.6232941,8.17964 -1.9612866,8.17964 -1.3379925,0 -1.1971415,-4.60799 -2.0739675,-7.50355 -0.876827,-2.89557 -2.54597,-10.2762 -2.545969,-14.69469 0,-8.83697 1.943952,-9.80328 4.6199365,-9.80328 2.6759852,0 4.2818927,1.52972 4.2818933,10.36669 z"
         style="opacity:1;fill:#ffffff;fill-opacity:1;fill-rule:nonzero;stroke:none;stroke-width:1;stroke-linecap:butt;stroke-linejoin:miter;stroke-miterlimit:4;stroke-dasharray:none;stroke-dashoffset:0;stroke-opacity:1" />
      <path
         style="opacity:1;fill:#ffffff;fill-opacity:1;fill-rule:nonzero;stroke:none;stroke-width:1;stroke-linecap:butt;stroke-linejoin:miter;stroke-miterlimit:4;stroke-dasharray:none;stroke-dashoffset:0;stroke-opacity:1"
         d="m 4.7895158,153.5897 c -2.1520651,3.85898 -6.4041198,8.51925 -8.5802265,10.62108 -2.1761104,2.10183 -4.5283361,6.84026 -5.6968979,6.18857 -1.1685614,-0.65168 1.198819,-4.60755 1.8433398,-7.56351 0.6445202,-2.95597 2.7815506,-10.21495 4.9336174,-14.07392 4.3041331,-7.71793 6.472568,-7.61506 8.8096897,-6.3117 2.3371224,1.30337 2.9946093,3.42155 -1.3095225,11.13948 z"
         id="path4151"
         inkscape:connector-curvature="0"
         sodipodi:nodetypes="sssssss" />
      <path
         sodipodi:nodetypes="sssssss"
         inkscape:connector-curvature="0"
         id="path4153"
         d="m 11.861001,165.14588 c -3.9483897,1.98323 -10.0841998,3.4495 -13.0652668,3.96563 -2.9810658,0.51614 -7.5891503,3.11445 -8.189702,1.9188 -0.6005558,-1.19564 3.5803933,-3.13806 5.7743318,-5.22127 2.1939392,-2.08321 8.0401331,-6.88756 11.9885291,-8.87079 7.8967839,-3.96647 9.6328259,-2.66307 10.8339409,-0.27179 1.201111,2.39129 0.554955,4.51295 -7.341833,8.47942 z"
         style="opacity:1;fill:#ffffff;fill-opacity:1;fill-rule:nonzero;stroke:none;stroke-width:1;stroke-linecap:butt;stroke-linejoin:miter;stroke-miterlimit:4;stroke-dasharray:none;stroke-dashoffset:0;stroke-opacity:1" />
      <path
         style="opacity:1;fill:#ffffff;fill-opacity:1;fill-rule:nonzero;stroke:none;stroke-width:1;stroke-linecap:butt;stroke-linejoin:miter;stroke-miterlimit:4;stroke-dasharray:none;stroke-dashoffset:0;stroke-opacity:1"
         d="m -25.787325,155.67158 c 2.587229,3.58179 7.353536,7.71464 9.759814,9.54848 2.406283,1.83384 5.294824,6.26576 6.3794515,5.48231 1.0846297,-0.78346 -1.7277385,-4.4364 -2.7124385,-7.29708 -0.984699,-2.86069 -3.953329,-9.82108 -6.540558,-13.40287 -5.174458,-7.16359 -7.316117,-6.80864 -9.485375,-5.24173 -2.169258,1.56691 -2.57535,3.74729 2.599106,10.91089 z"
         id="path4155"
         inkscape:connector-curvature="0"
         sodipodi:nodetypes="sssssss" />
      <path
         sodipodi:nodetypes="sssssss"
         inkscape:connector-curvature="0"
         id="path4157"
         d="m -31.463716,165.62554 c 4.004153,1.86809 10.17984,3.15612 13.174597,3.58573 2.994764,0.42959 7.676132,2.89344 8.24182,1.6809 0.5656951,-1.21252 -3.66974,-3.03309 -5.923066,-5.05191 -2.253331,-2.01883 -8.236162,-6.65192 -12.240318,-8.52001 -8.008302,-3.73619 -9.705884,-2.38307 -10.837266,0.042 -1.131377,2.42505 -0.424073,4.52712 7.584233,8.26331 z"
         style="opacity:1;fill:#ffffff;fill-opacity:1;fill-rule:nonzero;stroke:none;stroke-width:1;stroke-linecap:butt;stroke-linejoin:miter;stroke-miterlimit:4;stroke-dasharray:none;stroke-dashoffset:0;stroke-opacity:1" />
      <path
         style="opacity:1;fill:#ffffff;fill-opacity:1;fill-rule:nonzero;stroke:none;stroke-width:1;stroke-linecap:butt;stroke-linejoin:miter;stroke-miterlimit:4;stroke-dasharray:none;stroke-dashoffset:0;stroke-opacity:1"
         d="m -30.429464,179.1341 c 4.361996,-0.70427 10.19449,-3.10846 12.913278,-4.43562 2.718793,-1.32715 7.9757115,-1.91911 7.7624376,-3.23999 -0.2132705,-1.32089 -4.7398856,-0.44735 -7.7381936,-0.85144 -2.998313,-0.40407 -10.550632,-0.87544 -14.91263,-0.17117 -8.72399,1.40857 -9.368092,3.48168 -8.941558,6.12346 0.426542,2.64177 2.192669,3.98332 10.916666,2.57476 z"
         id="path4159"
         inkscape:connector-curvature="0"
         sodipodi:nodetypes="sssssss" />
      <path
         sodipodi:nodetypes="sssssss"
         inkscape:connector-curvature="0"
         id="path4161"
         d="m -8.6490258,194.11027 c -1.0046555,-4.30275 -0.9950337,-10.61132 -0.7995583,-13.63041 0.1954805,-3.0191 -1.2528799,-8.10711 0.050065,-8.41134 1.3029537,-0.30422 2.2135341,4.21509 3.725773,6.83544 1.5122414,2.62036 4.81583957,9.42816 5.82048946,13.7309 2.00931114,8.60551 0.33599333,9.98852 -2.26990036,10.59697 -2.605894,0.60845 -4.5175521,-0.51605 -6.5268693,-9.12156 z"
         style="opacity:1;fill:#ffffff;fill-opacity:1;fill-rule:nonzero;stroke:none;stroke-width:1;stroke-linecap:butt;stroke-linejoin:miter;stroke-miterlimit:4;stroke-dasharray:none;stroke-dashoffset:0;stroke-opacity:1" />
      <path
         style="opacity:1;fill:#ffffff;fill-opacity:1;fill-rule:nonzero;stroke:none;stroke-width:1;stroke-linecap:butt;stroke-linejoin:miter;stroke-miterlimit:4;stroke-dasharray:none;stroke-dashoffset:0;stroke-opacity:1"
         d="m -19.884801,191.86081 c 1.21826,-4.24721 4.299306,-9.75224 5.940515,-12.29381 1.641226,-2.54156 2.854415,-7.69073 4.1405485,-7.3218 1.2861302,0.3689 -0.119776,4.75944 -0.075301,7.78452 0.04448,3.02509 -0.3860605,10.57986 -1.6043245,14.82708 -2.43653,8.49443 -4.57156,8.8873 -7.143804,8.14949 -2.572256,-0.73782 -3.694149,-2.65102 -1.25762,-11.14546 z"
         id="path4163"
         inkscape:connector-curvature="0"
         sodipodi:nodetypes="sssssss" />
      <path
         sodipodi:nodetypes="sssssss"
         inkscape:connector-curvature="0"
         id="path4165"
         d="m -29.398657,182.21521 c 3.394032,-2.82905 9.035736,-5.65204 11.821362,-6.83248 2.785629,-1.18044 6.682226,-4.75846 7.538903,-3.73068 0.8566891,1.02778 -2.77309,3.86995 -4.43589,6.39746 -1.662812,2.52749 -6.263485,8.53528 -9.657518,11.36434 -6.788072,5.6581 -8.774997,4.78357 -10.48837,2.72804 -1.713367,-2.05556 -1.566557,-4.26856 5.221513,-9.92668 z"
         style="opacity:1;fill:#ffffff;fill-opacity:1;fill-rule:nonzero;stroke:none;stroke-width:1;stroke-linecap:butt;stroke-linejoin:miter;stroke-miterlimit:4;stroke-dasharray:none;stroke-dashoffset:0;stroke-opacity:1" />
      <path
         sodipodi:nodetypes="sssssss"
         inkscape:connector-curvature="0"
         id="path4169"
         d="m 11.259681,179.82845 c -4.313242,-0.95861 -9.9948782,-3.70036 -12.6312404,-5.18452 -2.6363576,-1.48417 -7.8495895,-2.38306 -7.559292,-3.68919 0.2902787,-1.30612 4.7579534,-0.16889 7.7747801,-0.39663 3.0168338,-0.22773 10.5838071,-0.25585 14.8970503,0.70278 8.626485,1.91723 9.148028,4.02453 8.567469,6.63676 -0.580571,2.61224 -2.422263,3.84803 -11.048755,1.93078 z"
         style="opacity:1;fill:#ffffff;fill-opacity:1;fill-rule:nonzero;stroke:none;stroke-width:1;stroke-linecap:butt;stroke-linejoin:miter;stroke-miterlimit:4;stroke-dasharray:none;stroke-dashoffset:0;stroke-opacity:1" />
      <path
         style="opacity:1;fill:#ffffff;fill-opacity:1;fill-rule:nonzero;stroke:none;stroke-width:1;stroke-linecap:butt;stroke-linejoin:miter;stroke-miterlimit:4;stroke-dasharray:none;stroke-dashoffset:0;stroke-opacity:1"
         d="m 2.2084074,189.9094 c -3.02955698,-3.21633 -6.1892766,-8.67658 -7.536366,-11.38555 -1.3470964,-2.70896 -5.1546934,-6.38155 -4.1807291,-7.29894 0.9739698,-0.9174 4.0309076,2.53345 6.6545402,4.04002 2.62362494,1.50657 8.8991974,5.73468 11.9287536,8.95101 6.0591009,6.43269 5.3065969,8.46896 3.3586809,10.30375 -1.947935,1.8348 -4.1657672,1.82238 -10.2248796,-4.61029 z"
         id="path4171"
         inkscape:connector-curvature="0"
         sodipodi:nodetypes="sssssss" />
      <circle
         r="8.0003796"
         cy="171.94412"
         cx="-9.9223862"
         id="path4173"
         style="opacity:1;fill:#ffffff;fill-opacity:1;fill-rule:nonzero;stroke:none;stroke-width:1;stroke-linecap:butt;stroke-linejoin:miter;stroke-miterlimit:4;stroke-dasharray:none;stroke-dashoffset:0;stroke-opacity:1" />
    </g>
    <path
       inkscape:transform-center-y="-0.141083"
       inkscape:transform-center-x="0.066305821"
       d="m -33.8111,204.40265 c -5.93494,1.63454 2.863126,-10.41704 -3.286313,-10.69923 -6.177504,-0.28348 1.502158,12.18845 -4.401148,10.34647 -5.876488,-1.83361 8.040493,-7.21545 3.01982,-10.77749 -5.043586,-3.57828 -5.325877,11.06571 -9.296205,6.32457 -3.952292,-4.7196 10.66506,-1.72301 8.367182,-7.43396 -2.308365,-5.73702 -10.462983,6.42968 -11.239783,0.29465 -0.773271,-6.10715 9.903547,4.31649 11.058024,-1.7302 1.159745,-6.07428 -12.278167,-0.24773 -9.61481,-5.82881 2.651258,-5.55572 5.997728,8.98552 10.238021,4.52288 4.259644,-4.483 -10.19512,-6.84648 -4.937202,-10.10166 5.234031,-3.24039 0.187672,10.80171 6.167518,9.33998 6.007137,-1.46841 -4.875193,-11.27152 1.307933,-11.16731 6.155036,0.10374 -5.681969,9.18844 0.138872,11.1917 5.847406,2.0124 1.992572,-12.11794 7.137808,-8.68742 5.121861,3.41493 -9.747624,4.65791 -5.933865,9.49014 3.831165,4.85429 8.22771,-9.11699 10.70148,-3.44933 2.462531,5.64191 -10.718478,-1.35148 -10.122642,4.77552 0.598556,6.15497 11.850609,-3.22146 10.867507,2.8839 -0.978635,6.07762 -8.28629,-6.93179 -11.097551,-1.45529 -2.82409,5.50149 11.711022,3.69685 7.583178,8.3015 -4.109092,4.58374 -3.223265,-10.31129 -8.549067,-7.22405 -5.350107,3.10133 7.85327,9.44145 1.891243,11.08344 z"
       inkscape:randomized="0"
       inkscape:rounded="0.55"
       inkscape:flatsided="false"
       sodipodi:arg2="1.5876529"
       sodipodi:arg1="1.3310532"
       sodipodi:r2="2.5680571"
       sodipodi:r1="13.657547"
       sodipodi:cy="191.13573"
       sodipodi:cx="-37.054127"
       sodipodi:sides="11"
       id="path4189"
       style="opacity:1;fill:#ffd794;fill-opacity:1;fill-rule:nonzero;stroke:none;stroke-width:1;stroke-linecap:butt;stroke-linejoin:miter;stroke-miterlimit:4;stroke-dasharray:none;stroke-dashoffset:0;stroke-opacity:1"
       sodipodi:type="star" />
    <path
       inkscape:transform-center-y="-0.10028613"
       inkscape:transform-center-x="-0.23171242"
       d="m 22.260836,250.25471 c -2.750651,4.18218 -4.745747,-6.24033 -8.583332,-3.02634 -3.8595279,3.23236 5.996587,7.0035 1.395371,9.04628 -4.575056,2.03116 -0.6186,-7.81544 -5.5845948,-7.18642 -4.9943906,0.63262 1.2582708,9.13372 -3.7169297,8.36461 -4.94691333,-0.76473 3.7049476,-6.90921 -0.8127888,-9.06486 -4.54356912,-2.16797 -3.8795381,8.36405 -7.6491309,5.02724 -3.7481605,-3.31784 6.8522006,-3.80935 4.2170718,-8.06527 -2.6501966,-4.28026 -7.7856208,4.93884 -9.1527871,0.0937 -1.3593932,-4.81755 7.82392822,0.49995 7.90804187,-4.50501 0.0845946,-5.03359 -9.21982387,-0.0544 -7.75049807,-4.86951 1.4609718,-4.78773 6.311614,4.65052 9.0882645,0.48555 2.7925277,-4.18879 -7.726798,-5.03038 -3.8874806,-8.28673 3.8174886,-3.23783 2.79540683,7.32459 7.3830274,5.32196 4.6138529,-2.01408 -3.7805684,-8.40925 1.2097844,-9.07297 4.96198,-0.65994 -1.6083222,7.67315 3.3337312,8.46868 4.9703128,0.80009 1.3659648,-9.11823 5.9229518,-6.9786 4.531077,2.12746 -5.501421,5.58553 -1.774001,8.92666 3.748733,3.36023 6.078814,-6.93226 8.755623,-2.66859 2.66159,4.23942 -7.647856,1.72456 -6.318501,6.55048 1.336958,4.85353 8.861683,-2.54532 8.808447,2.48869 -0.05293,5.0054 -7.366152,-2.68395 -8.856921,2.09458 -1.499293,4.80586 8.83103,2.64972 6.064651,6.85583 z"
       inkscape:randomized="0"
       inkscape:rounded="0.55"
       inkscape:flatsided="false"
       sodipodi:arg2="0.86737393"
       sodipodi:arg1="0.58800261"
       sodipodi:r2="8.134531"
       sodipodi:r1="16.639622"
       sodipodi:cy="241.0247"
       sodipodi:cx="8.4158335"
       sodipodi:sides="11"
       id="path4243"
       style="opacity:1;fill:#ffd794;fill-opacity:1;fill-rule:nonzero;stroke:none;stroke-width:1;stroke-linecap:butt;stroke-linejoin:miter;stroke-miterlimit:4;stroke-dasharray:none;stroke-dashoffset:0;stroke-opacity:1"
       sodipodi:type="star" />
    <path
       sodipodi:type="star"
       style="opacity:1;fill:#ffd794;fill-opacity:1;fill-rule:nonzero;stroke:none;stroke-width:1;stroke-linecap:butt;stroke-linejoin:miter;stroke-miterlimit:4;stroke-dasharray:none;stroke-dashoffset:0;stroke-opacity:1"
       id="path4245"
       sodipodi:sides="11"
       sodipodi:cx="-33.056744"
       sodipodi:cy="263.60471"
       sodipodi:r1="11.183065"
       sodipodi:r2="3.8996792"
       sodipodi:arg1="1.6145233"
       sodipodi:arg2="0.88602168"
       inkscape:flatsided="false"
       inkscape:rounded="0.55"
       inkscape:randomized="0"
       d="m -33.545589,274.77708 c -2.694106,3.9352 7.468113,-6.60934 2.955387,-8.15183 -5.627269,-1.92346 -3.438865,3.80213 -8.918027,6.11397 -4.393954,1.85395 9.855857,-1.52257 6.893444,-5.25996 -3.694063,-4.66044 -4.948543,1.33936 -10.807783,0.32195 -4.698753,-0.81591 9.114436,4.04761 8.642881,-0.69808 -0.588018,-5.91778 -4.887093,-1.54864 -9.266144,-5.57229 -3.511731,-3.22672 5.479246,8.33271 7.648265,4.08543 2.704719,-5.29625 -3.274026,-3.94496 -4.78257,-9.69736 -1.20976,-4.61307 0.104434,9.97222 4.225378,7.57185 5.138726,-2.99321 -0.621479,-5.08879 1.219436,-10.74359 1.476302,-4.53482 -5.303535,8.44562 -0.539035,8.65425 5.941224,0.26016 2.228383,-4.61695 6.834279,-8.37881 3.693649,-3.01677 -9.027669,4.23761 -5.13231,6.989 4.857426,3.43093 4.37075,-2.67927 10.279289,-3.35381 4.738287,-0.54094 -9.885582,-1.31582 -8.096112,3.10478 2.231428,5.5124 5.125434,0.10906 10.460695,2.736 4.278553,2.10665 -7.604893,-6.45149 -8.489456,-1.76518 -1.103031,5.84373 4.252829,2.86277 7.320905,7.95715 2.46041,4.08538 -2.909703,-9.53886 -6.187457,-6.07471 -4.087286,4.31971 2.029981,4.70756 1.85678,10.65196 -0.138898,4.76704 2.709296,-9.5977 -1.920985,-8.45557 -5.773857,1.42422 -0.837372,5.05775 -4.19686,9.96485 z"
       inkscape:transform-center-x="-0.17812695"
       inkscape:transform-center-y="-0.077081719" />
    <g
       transform="matrix(0.2835695,0,0,0.2835695,87.094593,163.20029)"
       id="g4249"
       style="fill:#ffd794;fill-opacity:1">
      <path
         style="opacity:1;fill:#ffd794;fill-opacity:1;fill-rule:nonzero;stroke:none;stroke-width:1;stroke-linecap:butt;stroke-linejoin:miter;stroke-miterlimit:4;stroke-dasharray:none;stroke-dashoffset:0;stroke-opacity:1"
         d="m -5.6404932,148.84443 c 6e-7,4.41848 -1.44378,10.55962 -2.3206067,13.45519 -0.8768268,2.89558 -0.6232941,8.17964 -1.9612866,8.17964 -1.3379925,0 -1.1971415,-4.60799 -2.0739675,-7.50355 -0.876827,-2.89557 -2.54597,-10.2762 -2.545969,-14.69469 0,-8.83697 1.943952,-9.80328 4.6199365,-9.80328 2.6759852,0 4.2818927,1.52972 4.2818933,10.36669 z"
         id="path4251"
         inkscape:connector-curvature="0"
         sodipodi:nodetypes="sssssss" />
      <path
         sodipodi:nodetypes="sssssss"
         inkscape:connector-curvature="0"
         id="path4253"
         d="m 4.7895158,153.5897 c -2.1520651,3.85898 -6.4041198,8.51925 -8.5802265,10.62108 -2.1761104,2.10183 -4.5283361,6.84026 -5.6968979,6.18857 -1.1685614,-0.65168 1.198819,-4.60755 1.8433398,-7.56351 0.6445202,-2.95597 2.7815506,-10.21495 4.9336174,-14.07392 4.3041331,-7.71793 6.472568,-7.61506 8.8096897,-6.3117 2.3371224,1.30337 2.9946093,3.42155 -1.3095225,11.13948 z"
         style="opacity:1;fill:#ffd794;fill-opacity:1;fill-rule:nonzero;stroke:none;stroke-width:1;stroke-linecap:butt;stroke-linejoin:miter;stroke-miterlimit:4;stroke-dasharray:none;stroke-dashoffset:0;stroke-opacity:1" />
      <path
         style="opacity:1;fill:#ffd794;fill-opacity:1;fill-rule:nonzero;stroke:none;stroke-width:1;stroke-linecap:butt;stroke-linejoin:miter;stroke-miterlimit:4;stroke-dasharray:none;stroke-dashoffset:0;stroke-opacity:1"
         d="m 11.861001,165.14588 c -3.9483897,1.98323 -10.0841998,3.4495 -13.0652668,3.96563 -2.9810658,0.51614 -7.5891503,3.11445 -8.189702,1.9188 -0.6005558,-1.19564 3.5803933,-3.13806 5.7743318,-5.22127 2.1939392,-2.08321 8.0401331,-6.88756 11.9885291,-8.87079 7.8967839,-3.96647 9.6328259,-2.66307 10.8339409,-0.27179 1.201111,2.39129 0.554955,4.51295 -7.341833,8.47942 z"
         id="path4255"
         inkscape:connector-curvature="0"
         sodipodi:nodetypes="sssssss" />
      <path
         sodipodi:nodetypes="sssssss"
         inkscape:connector-curvature="0"
         id="path4257"
         d="m -25.787325,155.67158 c 2.587229,3.58179 7.353536,7.71464 9.759814,9.54848 2.406283,1.83384 5.294824,6.26576 6.3794515,5.48231 1.0846297,-0.78346 -1.7277385,-4.4364 -2.7124385,-7.29708 -0.984699,-2.86069 -3.953329,-9.82108 -6.540558,-13.40287 -5.174458,-7.16359 -7.316117,-6.80864 -9.485375,-5.24173 -2.169258,1.56691 -2.57535,3.74729 2.599106,10.91089 z"
         style="opacity:1;fill:#ffd794;fill-opacity:1;fill-rule:nonzero;stroke:none;stroke-width:1;stroke-linecap:butt;stroke-linejoin:miter;stroke-miterlimit:4;stroke-dasharray:none;stroke-dashoffset:0;stroke-opacity:1" />
      <path
         style="opacity:1;fill:#ffd794;fill-opacity:1;fill-rule:nonzero;stroke:none;stroke-width:1;stroke-linecap:butt;stroke-linejoin:miter;stroke-miterlimit:4;stroke-dasharray:none;stroke-dashoffset:0;stroke-opacity:1"
         d="m -31.463716,165.62554 c 4.004153,1.86809 10.17984,3.15612 13.174597,3.58573 2.994764,0.42959 7.676132,2.89344 8.24182,1.6809 0.5656951,-1.21252 -3.66974,-3.03309 -5.923066,-5.05191 -2.253331,-2.01883 -8.236162,-6.65192 -12.240318,-8.52001 -8.008302,-3.73619 -9.705884,-2.38307 -10.837266,0.042 -1.131377,2.42505 -0.424073,4.52712 7.584233,8.26331 z"
         id="path4259"
         inkscape:connector-curvature="0"
         sodipodi:nodetypes="sssssss" />
      <path
         sodipodi:nodetypes="sssssss"
         inkscape:connector-curvature="0"
         id="path4261"
         d="m -30.429464,179.1341 c 4.361996,-0.70427 10.19449,-3.10846 12.913278,-4.43562 2.718793,-1.32715 7.9757115,-1.91911 7.7624376,-3.23999 -0.2132705,-1.32089 -4.7398856,-0.44735 -7.7381936,-0.85144 -2.998313,-0.40407 -10.550632,-0.87544 -14.91263,-0.17117 -8.72399,1.40857 -9.368092,3.48168 -8.941558,6.12346 0.426542,2.64177 2.192669,3.98332 10.916666,2.57476 z"
         style="opacity:1;fill:#ffd794;fill-opacity:1;fill-rule:nonzero;stroke:none;stroke-width:1;stroke-linecap:butt;stroke-linejoin:miter;stroke-miterlimit:4;stroke-dasharray:none;stroke-dashoffset:0;stroke-opacity:1" />
      <path
         style="opacity:1;fill:#ffd794;fill-opacity:1;fill-rule:nonzero;stroke:none;stroke-width:1;stroke-linecap:butt;stroke-linejoin:miter;stroke-miterlimit:4;stroke-dasharray:none;stroke-dashoffset:0;stroke-opacity:1"
         d="m -8.6490258,194.11027 c -1.0046555,-4.30275 -0.9950337,-10.61132 -0.7995583,-13.63041 0.1954805,-3.0191 -1.2528799,-8.10711 0.050065,-8.41134 1.3029537,-0.30422 2.2135341,4.21509 3.725773,6.83544 1.5122414,2.62036 4.81583957,9.42816 5.82048946,13.7309 2.00931114,8.60551 0.33599333,9.98852 -2.26990036,10.59697 -2.605894,0.60845 -4.5175521,-0.51605 -6.5268693,-9.12156 z"
         id="path4263"
         inkscape:connector-curvature="0"
         sodipodi:nodetypes="sssssss" />
      <path
         sodipodi:nodetypes="sssssss"
         inkscape:connector-curvature="0"
         id="path4265"
         d="m -19.884801,191.86081 c 1.21826,-4.24721 4.299306,-9.75224 5.940515,-12.29381 1.641226,-2.54156 2.854415,-7.69073 4.1405485,-7.3218 1.2861302,0.3689 -0.119776,4.75944 -0.075301,7.78452 0.04448,3.02509 -0.3860605,10.57986 -1.6043245,14.82708 -2.43653,8.49443 -4.57156,8.8873 -7.143804,8.14949 -2.572256,-0.73782 -3.694149,-2.65102 -1.25762,-11.14546 z"
         style="opacity:1;fill:#ffd794;fill-opacity:1;fill-rule:nonzero;stroke:none;stroke-width:1;stroke-linecap:butt;stroke-linejoin:miter;stroke-miterlimit:4;stroke-dasharray:none;stroke-dashoffset:0;stroke-opacity:1" />
      <path
         style="opacity:1;fill:#ffd794;fill-opacity:1;fill-rule:nonzero;stroke:none;stroke-width:1;stroke-linecap:butt;stroke-linejoin:miter;stroke-miterlimit:4;stroke-dasharray:none;stroke-dashoffset:0;stroke-opacity:1"
         d="m -29.398657,182.21521 c 3.394032,-2.82905 9.035736,-5.65204 11.821362,-6.83248 2.785629,-1.18044 6.682226,-4.75846 7.538903,-3.73068 0.8566891,1.02778 -2.77309,3.86995 -4.43589,6.39746 -1.662812,2.52749 -6.263485,8.53528 -9.657518,11.36434 -6.788072,5.6581 -8.774997,4.78357 -10.48837,2.72804 -1.713367,-2.05556 -1.566557,-4.26856 5.221513,-9.92668 z"
         id="path4267"
         inkscape:connector-curvature="0"
         sodipodi:nodetypes="sssssss" />
      <path
         style="opacity:1;fill:#ffd794;fill-opacity:1;fill-rule:nonzero;stroke:none;stroke-width:1;stroke-linecap:butt;stroke-linejoin:miter;stroke-miterlimit:4;stroke-dasharray:none;stroke-dashoffset:0;stroke-opacity:1"
         d="m 11.259681,179.82845 c -4.313242,-0.95861 -9.9948782,-3.70036 -12.6312404,-5.18452 -2.6363576,-1.48417 -7.8495895,-2.38306 -7.559292,-3.68919 0.2902787,-1.30612 4.7579534,-0.16889 7.7747801,-0.39663 3.0168338,-0.22773 10.5838071,-0.25585 14.8970503,0.70278 8.626485,1.91723 9.148028,4.02453 8.567469,6.63676 -0.580571,2.61224 -2.422263,3.84803 -11.048755,1.93078 z"
         id="path4269"
         inkscape:connector-curvature="0"
         sodipodi:nodetypes="sssssss" />
      <path
         sodipodi:nodetypes="sssssss"
         inkscape:connector-curvature="0"
         id="path4271"
         d="m 2.2084074,189.9094 c -3.02955698,-3.21633 -6.1892766,-8.67658 -7.536366,-11.38555 -1.3470964,-2.70896 -5.1546934,-6.38155 -4.1807291,-7.29894 0.9739698,-0.9174 4.0309076,2.53345 6.6545402,4.04002 2.62362494,1.50657 8.8991974,5.73468 11.9287536,8.95101 6.0591009,6.43269 5.3065969,8.46896 3.3586809,10.30375 -1.947935,1.8348 -4.1657672,1.82238 -10.2248796,-4.61029 z"
         style="opacity:1;fill:#ffd794;fill-opacity:1;fill-rule:nonzero;stroke:none;stroke-width:1;stroke-linecap:butt;stroke-linejoin:miter;stroke-miterlimit:4;stroke-dasharray:none;stroke-dashoffset:0;stroke-opacity:1" />
      <circle
         style="opacity:1;fill:#ffd794;fill-opacity:1;fill-rule:nonzero;stroke:none;stroke-width:1;stroke-linecap:butt;stroke-linejoin:miter;stroke-miterlimit:4;stroke-dasharray:none;stroke-dashoffset:0;stroke-opacity:1"
         id="circle4273"
         cx="-9.9223862"
         cy="171.94412"
         r="8.0003796" />
    </g>
  </g>
</svg>
